<svg xmlns="http://www.w3.org/2000/svg" xmlns:xlink="http://www.w3.org/1999/xlink" version="1.1" viewBox="8.73 8.94 12.54 12.12">
<g id="surface1">
<path style=" stroke:none;fill-rule:nonzero;fill:rgb(0%,0%,0%);fill-opacity:1;" d="M 8.730469 15 L 8.730469 21.058594 L 12.109375 21.058594 C 15.738281 21.058594 15.496094 21.058594 15.75 21.035156 C 15.820312 21.027344 15.972656 21.011719 15.992188 21.007812 L 16.003906 21.003906 L 16.003906 13.789062 L 13.578125 13.789062 L 13.578125 18.636719 L 11.15625 18.636719 L 11.15625 8.941406 L 8.730469 8.941406 Z M 8.730469 15 "/>
<path style=" stroke:none;fill-rule:nonzero;fill:rgb(0%,0%,0%);fill-opacity:1;" d="M 13.578125 10.152344 L 13.578125 11.363281 L 14.5 11.367188 C 15.484375 11.367188 15.449219 11.367188 15.648438 11.394531 C 16.289062 11.472656 16.898438 11.71875 17.40625 12.101562 C 17.570312 12.222656 17.671875 12.3125 17.820312 12.464844 C 17.996094 12.640625 18.125 12.800781 18.261719 13.007812 C 18.546875 13.4375 18.730469 13.929688 18.808594 14.441406 C 18.859375 14.792969 18.859375 15.207031 18.808594 15.558594 C 18.753906 15.929688 18.640625 16.289062 18.472656 16.621094 L 18.429688 16.710938 L 18.429688 18.421875 C 18.429688 19.359375 18.429688 20.128906 18.433594 20.128906 C 18.441406 20.128906 18.71875 19.941406 18.800781 19.878906 C 19.066406 19.683594 19.269531 19.511719 19.511719 19.269531 C 19.703125 19.078125 19.824219 18.941406 19.972656 18.753906 C 20.691406 17.851562 21.125 16.777344 21.238281 15.636719 C 21.304688 14.996094 21.269531 14.332031 21.140625 13.730469 C 20.925781 12.707031 20.457031 11.777344 19.746094 10.976562 C 19.597656 10.808594 19.320312 10.535156 19.132812 10.378906 C 18.589844 9.921875 17.949219 9.550781 17.28125 9.308594 C 16.804688 9.136719 16.328125 9.027344 15.824219 8.972656 C 15.53125 8.941406 15.566406 8.941406 14.53125 8.941406 L 13.578125 8.941406 Z M 13.578125 10.152344 "/>
</g>
</svg>